<svg width="16" height="16" viewBox="0 0 16 16" fill="none" xmlns="http://www.w3.org/2000/svg">
<g clip-path="url(#clip0_172_5)">
<mask id="mask0_172_5" style="mask-type:alpha" maskUnits="userSpaceOnUse" x="0" y="0" width="16" height="16">
<path d="M16 0H0V16H16V0Z" fill="#D9D9D9"/>
</mask>
<g mask="url(#mask0_172_5)">
<path d="M3.90016 11.4002C4.46683 10.9668 5.10016 10.6251 5.80016 10.3748C6.50016 10.1251 7.2335 10.0002 8.00016 10.0002C8.76683 10.0002 9.50016 10.1251 10.2002 10.3748C10.9002 10.6251 11.5335 10.9668 12.1002 11.4002C12.4891 10.9446 12.7919 10.4279 13.0088 9.85016C13.2253 9.27238 13.3335 8.65572 13.3335 8.00016C13.3335 6.52238 12.8142 5.26394 11.7755 4.22483C10.7364 3.18616 9.47794 2.66683 8.00016 2.66683C6.52238 2.66683 5.26416 3.18616 4.2255 4.22483C3.18638 5.26394 2.66683 6.52238 2.66683 8.00016C2.66683 8.65572 2.77527 9.27238 2.99216 9.85016C3.20861 10.4279 3.51127 10.9446 3.90016 11.4002ZM8.00016 8.66683C7.34461 8.66683 6.79172 8.44194 6.3415 7.99216C5.89172 7.54194 5.66683 6.98905 5.66683 6.3335C5.66683 5.67794 5.89172 5.12505 6.3415 4.67483C6.79172 4.22505 7.34461 4.00016 8.00016 4.00016C8.65572 4.00016 9.20861 4.22505 9.65883 4.67483C10.1086 5.12505 10.3335 5.67794 10.3335 6.3335C10.3335 6.98905 10.1086 7.54194 9.65883 7.99216C9.20861 8.44194 8.65572 8.66683 8.00016 8.66683ZM8.00016 14.6668C7.07794 14.6668 6.21127 14.4917 5.40016 14.1415C4.58905 13.7917 3.8835 13.3168 3.2835 12.7168C2.6835 12.1168 2.20861 11.4113 1.85883 10.6002C1.50861 9.78905 1.3335 8.92238 1.3335 8.00016C1.3335 7.07794 1.50861 6.21127 1.85883 5.40016C2.20861 4.58905 2.6835 3.8835 3.2835 3.2835C3.8835 2.6835 4.58905 2.20838 5.40016 1.85816C6.21127 1.50838 7.07794 1.3335 8.00016 1.3335C8.92238 1.3335 9.78905 1.50838 10.6002 1.85816C11.4113 2.20838 12.1168 2.6835 12.7168 3.2835C13.3168 3.8835 13.7917 4.58905 14.1415 5.40016C14.4917 6.21127 14.6668 7.07794 14.6668 8.00016C14.6668 8.92238 14.4917 9.78905 14.1415 10.6002C13.7917 11.4113 13.3168 12.1168 12.7168 12.7168C12.1168 13.3168 11.4113 13.7917 10.6002 14.1415C9.78905 14.4917 8.92238 14.6668 8.00016 14.6668ZM8.00016 13.3335C8.58905 13.3335 9.14461 13.2475 9.66683 13.0755C10.1891 12.9031 10.6668 12.6557 11.1002 12.3335C10.6668 12.0113 10.1891 11.7639 9.66683 11.5915C9.14461 11.4195 8.58905 11.3335 8.00016 11.3335C7.41127 11.3335 6.85572 11.4195 6.3335 11.5915C5.81127 11.7639 5.3335 12.0113 4.90016 12.3335C5.3335 12.6557 5.81127 12.9031 6.3335 13.0755C6.85572 13.2475 7.41127 13.3335 8.00016 13.3335ZM8.00016 7.3335C8.28905 7.3335 8.52794 7.23905 8.71683 7.05016C8.90572 6.86127 9.00016 6.62238 9.00016 6.3335C9.00016 6.04461 8.90572 5.80572 8.71683 5.61683C8.52794 5.42794 8.28905 5.3335 8.00016 5.3335C7.71127 5.3335 7.47238 5.42794 7.2835 5.61683C7.09461 5.80572 7.00016 6.04461 7.00016 6.3335C7.00016 6.62238 7.09461 6.86127 7.2835 7.05016C7.47238 7.23905 7.71127 7.3335 8.00016 7.3335Z" fill="white"/>
</g>
</g>
<defs>
<clipPath id="clip0_172_5">
<rect width="16" height="16" fill="white"/>
</clipPath>
</defs>
</svg>
