<svg width="16" height="16" viewBox="0 0 16 16" fill="none" xmlns="http://www.w3.org/2000/svg">
<g clip-path="url(#clip0_174_17)">
<mask id="mask0_174_17" style="mask-type:alpha" maskUnits="userSpaceOnUse" x="0" y="0" width="16" height="16">
<path d="M16 0H0V16H16V0Z" fill="#D9D9D9"/>
</mask>
<g mask="url(#mask0_174_17)">
<path d="M8.00016 14.6668C7.08905 14.6668 6.22794 14.4917 5.41683 14.1415C4.60572 13.7917 3.8975 13.3139 3.29216 12.7082C2.68639 12.1028 2.20861 11.3946 1.85883 10.5835C1.50861 9.77238 1.3335 8.91127 1.3335 8.00016C1.3335 7.07794 1.50861 6.21416 1.85883 5.40883C2.20861 4.60305 2.68639 3.8975 3.29216 3.29216C3.8975 2.68639 4.60572 2.20838 5.41683 1.85816C6.22794 1.50838 7.08905 1.3335 8.00016 1.3335C8.92238 1.3335 9.78616 1.50838 10.5915 1.85816C11.3973 2.20838 12.1028 2.68639 12.7082 3.29216C13.3139 3.8975 13.7917 4.60305 14.1415 5.40883C14.4917 6.21416 14.6668 7.07794 14.6668 8.00016V8.96683C14.6668 9.62238 14.4419 10.1806 13.9922 10.6415C13.5419 11.1028 12.9891 11.3335 12.3335 11.3335C11.9335 11.3335 11.5613 11.2446 11.2168 11.0668C10.8724 10.8891 10.5891 10.6557 10.3668 10.3668C10.0668 10.6668 9.71416 10.9031 9.30883 11.0755C8.90305 11.2475 8.46683 11.3335 8.00016 11.3335C7.07794 11.3335 6.29194 11.0084 5.64216 10.3582C4.99194 9.70838 4.66683 8.92238 4.66683 8.00016C4.66683 7.07794 4.99194 6.29172 5.64216 5.6415C6.29194 4.99172 7.07794 4.66683 8.00016 4.66683C8.92238 4.66683 9.70861 4.99172 10.3588 5.6415C11.0086 6.29172 11.3335 7.07794 11.3335 8.00016V8.96683C11.3335 9.28905 11.4335 9.54172 11.6335 9.72483C11.8335 9.90838 12.0668 10.0002 12.3335 10.0002C12.6002 10.0002 12.8335 9.90838 13.0335 9.72483C13.2335 9.54172 13.3335 9.28905 13.3335 8.96683V8.00016C13.3335 6.54461 12.8084 5.29172 11.7582 4.2415C10.7084 3.19172 9.45572 2.66683 8.00016 2.66683C6.54461 2.66683 5.29172 3.19172 4.2415 4.2415C3.19172 5.29172 2.66683 6.54461 2.66683 8.00016C2.66683 9.45572 3.19172 10.7084 4.2415 11.7582C5.29172 12.8084 6.54461 13.3335 8.00016 13.3335H11.3335V14.6668H8.00016ZM8.00016 10.0002C8.55572 10.0002 9.02794 9.80572 9.41683 9.41683C9.80572 9.02794 10.0002 8.55572 10.0002 8.00016C10.0002 7.44461 9.80572 6.97238 9.41683 6.5835C9.02794 6.19461 8.55572 6.00016 8.00016 6.00016C7.44461 6.00016 6.97238 6.19461 6.5835 6.5835C6.19461 6.97238 6.00016 7.44461 6.00016 8.00016C6.00016 8.55572 6.19461 9.02794 6.5835 9.41683C6.97238 9.80572 7.44461 10.0002 8.00016 10.0002Z" fill="white"/>
</g>
</g>
<defs>
<clipPath id="clip0_174_17">
<rect width="16" height="16" fill="white"/>
</clipPath>
</defs>
</svg>
