<svg width="16" height="16" viewBox="0 0 16 16" fill="none" xmlns="http://www.w3.org/2000/svg">
<g clip-path="url(#clip0_172_11)">
<mask id="mask0_172_11" style="mask-type:alpha" maskUnits="userSpaceOnUse" x="0" y="0" width="16" height="16">
<path d="M16 0H0V16H16V0Z" fill="#D9D9D9"/>
</mask>
<g mask="url(#mask0_172_11)">
<path d="M3.99984 14.6665C3.63317 14.6665 3.31939 14.5361 3.0585 14.2752C2.79717 14.0138 2.6665 13.6998 2.6665 13.3332V6.6665C2.6665 6.29984 2.79717 5.98584 3.0585 5.7245C3.31939 5.46362 3.63317 5.33317 3.99984 5.33317H4.6665V3.99984C4.6665 3.07762 4.99162 2.29139 5.64184 1.64117C6.29162 0.991393 7.07762 0.666504 7.99984 0.666504C8.92206 0.666504 9.70828 0.991393 10.3585 1.64117C11.0083 2.29139 11.3332 3.07762 11.3332 3.99984V5.33317H11.9998C12.3665 5.33317 12.6805 5.46362 12.9418 5.7245C13.2027 5.98584 13.3332 6.29984 13.3332 6.6665V13.3332C13.3332 13.6998 13.2027 14.0138 12.9418 14.2752C12.6805 14.5361 12.3665 14.6665 11.9998 14.6665H3.99984ZM3.99984 13.3332H11.9998V6.6665H3.99984V13.3332ZM7.99984 11.3332C8.3665 11.3332 8.6805 11.2027 8.94184 10.9418C9.20273 10.6805 9.33317 10.3665 9.33317 9.99984C9.33317 9.63317 9.20273 9.31917 8.94184 9.05784C8.6805 8.79695 8.3665 8.6665 7.99984 8.6665C7.63317 8.6665 7.31939 8.79695 7.0585 9.05784C6.79717 9.31917 6.6665 9.63317 6.6665 9.99984C6.6665 10.3665 6.79717 10.6805 7.0585 10.9418C7.31939 11.2027 7.63317 11.3332 7.99984 11.3332ZM5.99984 5.33317H9.99984V3.99984C9.99984 3.44428 9.80539 2.97206 9.4165 2.58317C9.02762 2.19428 8.55539 1.99984 7.99984 1.99984C7.44428 1.99984 6.97206 2.19428 6.58317 2.58317C6.19428 2.97206 5.99984 3.44428 5.99984 3.99984V5.33317Z" fill="white"/>
</g>
</g>
<defs>
<clipPath id="clip0_172_11">
<rect width="16" height="16" fill="white"/>
</clipPath>
</defs>
</svg>
