<svg width="196" height="217" viewBox="0 0 196 217" fill="none" xmlns="http://www.w3.org/2000/svg">
<ellipse cx="43.5" cy="174" rx="43.5" ry="43" fill="#5FFFF5"/>
<ellipse cx="160" cy="102.5" rx="36" ry="35.5" fill="#5F95FF"/>
<ellipse cx="49" cy="37.5" rx="38" ry="37.5" fill="#FFBF5F"/>
<circle cx="53.0328" cy="76.4262" r="9.18033" fill="black"/>
<circle cx="122.803" cy="76.4262" r="9.18033" fill="black"/>
<rect x="43.8525" y="47.0492" width="88.1311" height="12.8525" fill="black"/>
<rect x="80.5738" y="59.9016" width="44.0656" height="12.8525" transform="rotate(-90 80.5738 59.9016)" fill="black"/>
<path d="M132 91H114.5L114.384 118.163C112.177 136.755 94.6558 140.49 86 140C69.2 140.8 62.3333 125 61 117V91H44V117C44 127 51.6667 138.833 55.5 143.5C80.5 165 107 154.5 120 143.5C130.4 134.7 132.333 120.833 132 115V91Z" fill="black"/>
</svg>
